<?xml version="1.0" encoding="UTF-8"?>
<svg version="1.1" xmlns="http://www.w3.org/2000/svg" width="437" height="436">
<path d="M0 0 C1.3529567 0.00273422 1.3529567 0.00273422 2.73324585 0.00552368 C16.30364621 0.05165953 29.55453742 0.49417639 42.875 3.3125 C43.68485352 3.47878906 44.49470703 3.64507812 45.32910156 3.81640625 C64.22154936 7.81559159 82.93372486 13.97533335 99.90625 23.24414062 C101.9862974 24.3728965 104.08520016 25.46018798 106.1875 26.546875 C122.4271794 35.08511692 137.16321976 45.86695075 150.25195312 58.72460938 C151.99948893 60.43429242 153.77263348 62.11494573 155.546875 63.796875 C168.7024007 76.42685345 179.501939 90.69502927 188.875 106.3125 C189.2457666 106.92383789 189.6165332 107.53517578 189.99853516 108.16503906 C207.49767171 137.25819238 218.79861108 172.55114352 219.11328125 206.62109375 C219.12302979 207.49693619 219.13277832 208.37277863 219.14282227 209.27516174 C219.31113404 228.31616779 219.21275524 246.67005925 214.875 265.3125 C214.68776367 266.14990723 214.50052734 266.98731445 214.30761719 267.85009766 C210.31414723 285.37929263 204.50868954 302.46104762 195.95947266 318.29541016 C194.82909783 320.3978768 193.73302418 322.51631397 192.63671875 324.63671875 C184.09453804 340.87023705 173.31823712 355.60307345 160.46289062 368.68945312 C158.75320758 370.43698893 157.07255427 372.21013348 155.390625 373.984375 C142.76064655 387.1399007 128.49247073 397.939439 112.875 407.3125 C112.26366211 407.6832666 111.65232422 408.0540332 111.02246094 408.43603516 C88.35616929 422.06950171 62.93124743 430.91411015 36.875 435.3125 C35.90046875 435.4875708 34.9259375 435.6626416 33.921875 435.84301758 C28.33441105 436.62223953 22.68937455 436.51569277 17.05859375 436.55078125 C15.81110855 436.558853 14.56362335 436.56692474 13.27833557 436.57524109 C10.63481987 436.58905054 7.99142732 436.60007196 5.34790039 436.60766602 C2.68405802 436.61643342 0.02148674 436.63942517 -2.64233398 436.66918945 C-26.77483772 436.93834754 -48.27147 434.01134975 -71.125 426.3125 C-71.83881836 426.07273437 -72.55263672 425.83296875 -73.28808594 425.5859375 C-83.68941946 422.02925793 -93.4225634 417.45581672 -103.125 412.3125 C-104.09107178 411.81242432 -104.09107178 411.81242432 -105.07666016 411.30224609 C-121.44951029 402.79692284 -136.34376128 391.82628148 -149.50195312 378.90039062 C-151.24948893 377.19070758 -153.02263348 375.51005427 -154.796875 373.828125 C-167.9524007 361.19814655 -178.751939 346.92997073 -188.125 331.3125 C-188.6811499 330.39549316 -188.6811499 330.39549316 -189.24853516 329.45996094 C-206.74767171 300.36680762 -218.04861108 265.07385648 -218.36328125 231.00390625 C-218.37302979 230.12806381 -218.38277832 229.25222137 -218.39282227 228.34983826 C-218.56113404 209.30883221 -218.46275524 190.95494075 -214.125 172.3125 C-213.93776367 171.47509277 -213.75052734 170.63768555 -213.55761719 169.77490234 C-209.56414723 152.24570737 -203.75868954 135.16395238 -195.20947266 119.32958984 C-194.07909783 117.2271232 -192.98302418 115.10868603 -191.88671875 112.98828125 C-183.34453804 96.75476295 -172.56823712 82.02192655 -159.71289062 68.93554688 C-158.00320758 67.18801107 -156.32255427 65.41486652 -154.640625 63.640625 C-142.01064655 50.4850993 -127.74247073 39.685561 -112.125 30.3125 C-111.51366211 29.9417334 -110.90232422 29.5709668 -110.27246094 29.18896484 C-90.2412064 17.14043732 -68.09080753 8.89581156 -45.25 4 C-44.56292969 3.85272461 -43.87585938 3.70544922 -43.16796875 3.55371094 C-28.78188461 0.69390743 -14.6227606 -0.06141967 0 0 Z " fill="#FDFDFD" transform="translate(218.125,-0.3125)"/>
<path d="M0 0 C4.0746315 2.28179364 5.6405537 1.94585235 10.125 0.75 C12.96392904 -0.21919341 15.77443203 -1.23535433 18.57421875 -2.3125 C30.68486318 -6.76357912 44.58790589 -4.57168897 56.0625 0.6875 C67.25823857 6.37723803 78.63745852 16.38426361 83.09375 28.3515625 C84.78280323 32.8602449 86.29337273 35.5559393 90.67578125 37.6875 C93.4771521 38.90431424 96.32111579 40.00031586 99.16796875 41.10546875 C104.24942729 43.11146523 108.12912336 46.06086078 112.125 49.75 C113.05699219 50.56404297 113.05699219 50.56404297 114.0078125 51.39453125 C122.86135201 59.57734807 128.82709859 71.13825374 129.4375 83.234375 C129.80950776 99.90305296 125.73820853 114.29525462 114.125 126.75 C102.14257332 139.26895325 87.49425747 143.19670418 70.7421875 145.125 C67.78927262 145.51643571 67.78927262 145.51643571 66.125 148.75 C65.73112212 151.07387947 65.39013915 153.40793749 65.125 155.75 C59.08495549 154.11755554 50.16191861 151.11690665 46.796875 145.5546875 C46.57515625 144.95914063 46.3534375 144.36359375 46.125 143.75 C46.70507812 143.193125 47.28515625 142.63625 47.8828125 142.0625 C48.66398438 141.299375 49.44515625 140.53625 50.25 139.75 C51.01570312 139.0075 51.78140625 138.265 52.5703125 137.5 C55.06954911 134.98158507 55.06954911 134.98158507 56.42358398 132.6809082 C59.9611678 127.11192657 59.9611678 127.11192657 63.33105469 126.06396484 C65.89671117 125.84459454 68.36461299 125.83950356 70.9375 125.9375 C81.94245455 126.11244629 90.52824892 123.92970419 99.125 116.75 C106.7201659 109.06332608 111.30806688 99.58333354 111.75 88.75 C111.3586297 79.16671649 107.95074084 70.45328044 101.25390625 63.49609375 C94.0992869 57.62799311 85.94956795 55.10829567 76.9375 53.68359375 C73.26506524 52.46454943 72.15404827 51.01194531 70.125 47.75 C69.0703125 44.734375 69.0703125 44.734375 68.25 41.5 C64.9293871 30.14068327 59.01810569 23.4059681 48.88671875 17.4296875 C40.74792818 13.51759657 30.81800272 13.36561572 22.12109375 15.48046875 C18.09957799 16.98469984 14.82559447 18.88057013 11.4375 21.5 C9.02865547 23.28702653 7.85759525 23.81558984 4.8125 24.5625 C-0.06340435 23.48814819 -2.59411317 20.92104829 -6.34375 17.73046875 C-13.2313752 12.34153977 -21.38694407 11.78396806 -29.875 12.75 C-40.93507065 15.36017667 -48.86136381 21.19579102 -54.875 30.75 C-55.29007813 31.37003906 -55.70515625 31.99007812 -56.1328125 32.62890625 C-60.67688575 40.74786231 -60.24327207 52.91129087 -57.875 61.75 C-57.50004195 64.49255029 -57.38770803 67.01668414 -57.875 69.75 C-60.58792348 73.0383921 -62.22316929 73.65851499 -66.4375 74.25 C-70.51166799 73.65739375 -71.27966572 72.83064069 -73.875 69.75 C-77.66032881 62.44371454 -78.59145254 54.87363484 -78.875 46.75 C-88.32192506 47.05473952 -95.16813337 50.56458854 -101.6875 57.4375 C-108.8956673 66.28156343 -111.91328255 76.50437638 -110.875 87.75 C-108.46303962 97.79753783 -103.52294533 106.29632618 -95.1953125 112.4609375 C-88.18011632 116.35826871 -82.45991322 117.18650718 -74.5625 117 C-73.22348633 116.99226563 -73.22348633 116.99226563 -71.85742188 116.984375 C-66.78560341 116.92354942 -66.78560341 116.92354942 -61.875 115.75 C-54.72020036 115.18215876 -54.72020036 115.18215876 -51.78369141 117.1550293 C-48.86735936 121.11994275 -49.29098162 124.89142398 -49.30078125 129.6953125 C-49.28661667 130.66153534 -49.27245209 131.62775818 -49.25785828 132.6232605 C-49.21594397 135.70728708 -49.2007135 138.79072859 -49.1875 141.875 C-49.15846507 144.96614049 -49.12395117 148.05713184 -49.08500671 151.14816284 C-49.06248316 153.07121038 -49.04668584 154.99435044 -49.03816223 156.91751099 C-49.02761055 158.21928787 -49.02761055 158.21928787 -49.0168457 159.54736328 C-49.01336624 160.31251251 -49.00988678 161.07766174 -49.00630188 161.86599731 C-48.98985567 163.84024443 -48.98985567 163.84024443 -47.875 165.75 C-41.90731792 166.81630648 -36.00683952 166.90062389 -29.95825195 166.90771484 C-28.99951172 166.91279556 -28.04077148 166.91787628 -27.05297852 166.92311096 C-24.98452459 166.93375853 -22.91605955 166.94240039 -20.84758949 166.94923019 C-17.57323428 166.96108246 -14.29900724 166.98054764 -11.02470398 167.00234985 C-1.71988162 167.06378042 7.58492326 167.11810646 16.88989258 167.15136719 C22.59208922 167.17229345 28.29404446 167.20756835 33.99610329 167.25212479 C36.1661985 167.2662877 38.33633633 167.27500787 40.50647545 167.27817917 C43.5367204 167.28307978 46.56632121 167.30621233 49.59643555 167.33349609 C50.93920311 167.32898689 50.93920311 167.32898689 52.30909729 167.3243866 C57.52393445 167.39422505 61.25048071 167.87548071 65.125 171.75 C65.83694379 178.86943794 65.83694379 178.86943794 62.75 182.6875 C59.44275738 185.28604777 57.96908885 185.87522557 53.86705017 185.86352539 C52.97384567 185.8634549 52.08064117 185.8633844 51.16036987 185.86331177 C49.68674484 185.85556229 49.68674484 185.85556229 48.18334961 185.84765625 C47.15078537 185.84619598 46.11822113 185.84473572 45.05436707 185.8432312 C42.80735232 185.83941889 40.5603406 185.83329573 38.31333733 185.82516479 C34.76337458 185.81244997 31.213449 185.80589831 27.66346741 185.80102539 C20.12979498 185.78957278 12.59615303 185.77032536 5.0625 185.75 C-3.66723343 185.72645964 -12.39694947 185.70605061 -21.12670708 185.69406128 C-24.63503704 185.68754664 -28.14331426 185.67503884 -31.65162659 185.66235352 C-33.78866529 185.65872311 -35.9257045 185.65537112 -38.06274414 185.65234375 C-39.04718506 185.64717743 -40.03162598 185.64201111 -41.04589844 185.63668823 C-41.93628311 185.63661774 -42.82666779 185.63654724 -43.74403381 185.63647461 C-44.52219483 185.634254 -45.30035585 185.63203339 -46.10209751 185.62974548 C-47.90074326 185.55653219 -47.90074326 185.55653219 -48.875 186.75 C-48.97876565 189.16012446 -49.01861772 191.5425147 -49.0168457 193.95336914 C-49.02032013 194.70810013 -49.02379456 195.46283112 -49.02737427 196.24043274 C-49.03474897 197.88773417 -49.04008517 199.53504565 -49.04366493 201.1823597 C-49.0508325 203.80390028 -49.06650861 206.42525389 -49.08500671 209.04673767 C-49.13740916 216.5038673 -49.18528611 223.96090383 -49.20092773 231.41821289 C-49.21111844 235.97780248 -49.24073549 240.53693474 -49.28224754 245.09634209 C-49.29442489 246.82192937 -49.29970354 248.54758175 -49.29744911 250.27321053 C-49.28353227 264.42561601 -50.73444035 278.23201482 -57.4375 291 C-57.77265625 291.65347412 -58.1078125 292.30694824 -58.453125 292.98022461 C-62.20357313 299.91330708 -67.23282328 305.31617545 -72.875 310.75 C-73.53113281 311.42546875 -74.18726563 312.1009375 -74.86328125 312.796875 C-85.95113572 323.52858854 -102.87657407 329.0572574 -118.0625 329.1875 C-134.10480204 328.89508725 -147.65293736 322.7888921 -159.19140625 311.65234375 C-176.22780892 293.22723868 -192.45171332 263.83311122 -194.4375 238.4375 C-193.875 234.75 -193.875 234.75 -191.3125 231.6875 C-187.875 229.75 -187.875 229.75 -184.25 229.625 C-180.06351634 231.02049455 -179.25522228 232.04898771 -176.875 235.75 C-175.57470652 239.25304629 -174.611064 242.83538993 -173.625 246.4375 C-167.58754653 267.22752512 -158.0680642 292.14541169 -138.8125 304.1875 C-137.18017698 305.06720996 -135.53515416 305.92401197 -133.875 306.75 C-133.26527344 307.08902344 -132.65554687 307.42804688 -132.02734375 307.77734375 C-123.66913858 311.76356468 -112.12883756 310.78946018 -103.5 308.125 C-89.04320401 302.52250182 -79.63708226 293.6824568 -72.875 279.75 C-68.54904292 268.68757054 -68.33938838 258.3582971 -68.484375 246.6640625 C-68.49185496 244.8680383 -68.49753957 243.07200581 -68.50152588 241.27597046 C-68.51664435 236.59713361 -68.55580341 231.91881025 -68.6003418 227.24017334 C-68.64159578 222.44664451 -68.65960059 217.65303099 -68.6796875 212.859375 C-68.72231418 203.48936034 -68.79039364 194.11972322 -68.875 184.75 C-80.43858674 182.34795295 -91.49983006 181.58456873 -103.3125 181.625 C-104.46943359 181.62113281 -105.62636719 181.61726562 -106.81835938 181.61328125 C-107.92888672 181.61457031 -109.03941406 181.61585938 -110.18359375 181.6171875 C-111.68104126 181.61887939 -111.68104126 181.61887939 -113.20874023 181.62060547 C-115.60326258 181.73681249 -117.58294717 182.09229962 -119.875 182.75 C-122.9677349 183.18707702 -125.79360105 183.32022329 -128.875 182.75 C-132.51215985 179.70666217 -133.69798645 177.87108584 -134.4375 173.1875 C-133.75560337 169.02035393 -133.05129284 167.53894006 -129.875 164.75 C-123.07971349 161.48328357 -116.34899124 161.31420347 -108.9375 161.4375 C-107.84373047 161.44587891 -106.74996094 161.45425781 -105.62304688 161.46289062 C-98.28969735 161.57016607 -91.06235584 162.03141317 -83.79711914 163.0378418 C-78.66208455 163.74849673 -74.20792028 163.75 -68.875 163.75 C-68.875 154.84 -68.875 145.93 -68.875 136.75 C-70.89625 136.6675 -72.9175 136.585 -75 136.5 C-90.65061671 135.33251448 -104.8709733 130.03043395 -115.7734375 118.39453125 C-126.42990237 104.98481616 -130.22649251 90.95992543 -129.13378906 74.00927734 C-128.49743724 68.45380582 -126.41678524 63.67175923 -123.875 58.75 C-123.22337891 57.43128906 -123.22337891 57.43128906 -122.55859375 56.0859375 C-114.82210098 41.84726419 -101.90527421 33.27865203 -86.7578125 28.4140625 C-83.91534531 27.75929363 -81.52723335 27.70562334 -78.625 27.75 C-76.14994792 27.70399283 -76.14994792 27.70399283 -73.875 26.75 C-71.51230222 24.0130581 -69.76990135 21.13536982 -67.92578125 18.02734375 C-60.2662302 5.78665169 -48.51502876 -0.55105753 -35.1171875 -4.80859375 C-24.13515955 -6.97056092 -9.50799425 -6.07162382 0 0 Z " fill="#036175" transform="translate(210.875,26.25)"/>
<path d="M0 0 C2.76451246 3.17105841 3.05058321 5.27015954 3.125 9.4375 C2.20147558 12.14784341 1.64647141 13.1723115 -0.93359375 14.484375 C-1.71863281 14.71640625 -2.50367188 14.9484375 -3.3125 15.1875 C-4.09496094 15.42984375 -4.87742187 15.6721875 -5.68359375 15.921875 C-7.875 16.4375 -7.875 16.4375 -10.875 16.4375 C-10.875 17.0975 -10.875 17.7575 -10.875 18.4375 C-10.070625 18.623125 -9.26625 18.80875 -8.4375 19 C0.82712724 22.73835836 8.0310385 30.18021358 12 39.3125 C14.8955091 48.1196735 13.1091776 56.48007586 9.05859375 64.56640625 C3.39854389 74.41078341 -4.43249363 78.27972174 -15.0546875 81.359375 C-19.3107144 82.47601002 -23.58172479 83.47539805 -27.875 84.4375 C-29.01259766 84.6938623 -30.15019531 84.95022461 -31.32226562 85.21435547 C-34.53821909 85.93126928 -37.75634889 86.63603192 -40.97787476 87.32745361 C-42.90639493 87.74329293 -44.8327411 88.16917362 -46.7590332 88.59521484 C-48.56633911 88.97540771 -48.56633911 88.97540771 -50.41015625 89.36328125 C-51.486604 89.59442627 -52.56305176 89.82557129 -53.67211914 90.0637207 C-57.31252146 90.48855918 -60.29719575 90.20632249 -63.875 89.4375 C-64.865 88.4475 -64.865 88.4475 -65.875 87.4375 C-69.48419981 87.54365294 -71.86165089 88.96795029 -74.8125 90.875 C-80.931123 94.82470813 -86.6085129 96.42278639 -93.875 95.4375 C-99.79162041 93.57132582 -103.37854303 90.47651151 -106.875 85.4375 C-108.63645942 81.74607379 -109.13743064 78.79286521 -109.18139648 74.71679688 C-109.19738388 73.59213013 -109.21337128 72.46746338 -109.22984314 71.30871582 C-109.23520584 70.1034021 -109.24056854 68.89808838 -109.24609375 67.65625 C-109.25963646 65.78688782 -109.25963646 65.78688782 -109.27345276 63.87976074 C-109.28794751 61.24717612 -109.29684006 58.61455553 -109.30053711 55.98193359 C-109.30485702 53.28524746 -109.32579283 50.58951018 -109.36206055 47.89306641 C-109.41077259 44.00133094 -109.42631282 40.1107584 -109.43359375 36.21875 C-109.45312607 35.01343628 -109.47265839 33.80812256 -109.49278259 32.56628418 C-109.44254281 23.26955095 -109.44254281 23.26955095 -106.52758789 20.16992188 C-103.26549174 18.03942631 -101.70322815 17.79946197 -97.875 18.4375 C-94.07733896 20.16370956 -92.40357227 21.59285929 -90.875 25.4375 C-90.5965271 27.85467529 -90.5965271 27.85467529 -90.55615234 30.57324219 C-90.53628265 31.59399841 -90.51641296 32.61475464 -90.49594116 33.66644287 C-90.48438995 34.76136047 -90.47283875 35.85627808 -90.4609375 36.984375 C-90.44157135 38.1107135 -90.4222052 39.237052 -90.4022522 40.39752197 C-90.34248479 43.99410434 -90.29608181 47.59071876 -90.25 51.1875 C-90.21181766 53.62631602 -90.17276578 56.0651186 -90.1328125 58.50390625 C-90.03678551 64.48165144 -89.95172952 70.45947766 -89.875 76.4375 C-84.46004945 76.61545126 -84.46004945 76.61545126 -80.125 73.6875 C-79.55265625 73.17703125 -78.9803125 72.6665625 -78.390625 72.140625 C-75.4246155 68.80768649 -74.62620201 65.98479253 -74.61962891 61.56469727 C-74.60919052 60.11783287 -74.60919052 60.11783287 -74.59854126 58.64173889 C-74.59953827 57.60625412 -74.60053528 56.57076935 -74.6015625 55.50390625 C-74.58127647 53.3066355 -74.56042574 51.10936991 -74.5390625 48.91210938 C-74.51644491 45.45137171 -74.49998453 41.99083753 -74.49414062 38.5300293 C-74.48462553 35.18761516 -74.45086243 31.84611571 -74.4140625 28.50390625 C-74.41910797 27.47044571 -74.42415344 26.43698517 -74.42935181 25.37220764 C-74.33084477 18.18482188 -74.33084477 18.18482188 -71.96630859 14.30834961 C-69.50215167 12.10395613 -68.40411833 11.5096525 -65.125 11.0625 C-61.68940786 11.45891448 -59.74786821 12.28729993 -57.14984131 14.57919312 C-54.33922624 18.67616213 -55.03266162 23.95476454 -55.0703125 28.73828125 C-55.05660614 29.92979294 -55.04289978 31.12130463 -55.02877808 32.34892273 C-54.99142688 36.14966411 -54.99519694 39.94910087 -55 43.75 C-54.98187707 46.32879651 -54.96107567 48.9075757 -54.9375 51.48632812 C-54.88560059 57.80351346 -54.8674467 64.1201211 -54.875 70.4375 C-48.81797011 69.72599662 -48.81797011 69.72599662 -42.8125 68.68359375 C-41.83603516 68.48540039 -41.83603516 68.48540039 -40.83984375 68.28320312 C-39.86724609 68.08114258 -39.86724609 68.08114258 -38.875 67.875 C-38.19566406 67.73642578 -37.51632813 67.59785156 -36.81640625 67.45507812 C-35.16871854 67.11857852 -33.52177586 66.77843407 -31.875 66.4375 C-31.875 63.67173398 -33.08905422 62.88783514 -34.875 60.8125 C-37.08442023 57.92768828 -38.34699624 55.91513551 -38.5 52.25 C-37.81491521 48.07098276 -36.8830279 46.35705649 -33.875 43.4375 C-30.28839667 41.64419834 -26.640501 42.36250051 -22.875 43.4375 C-17.72994852 46.70834709 -13.7810794 51.10968777 -10.875 56.4375 C-10.875 57.4275 -10.875 58.4175 -10.875 59.4375 C-7.57930111 56.4414101 -6.08088031 54.0159157 -5.5 49.5625 C-6.11307168 44.45356931 -8.16721211 41.81722091 -12.05078125 38.6796875 C-17.41504369 34.8254274 -23.02830664 31.50207116 -28.875 28.4375 C-29.16890625 29.07171875 -29.4628125 29.7059375 -29.765625 30.359375 C-31.16276392 32.97655073 -32.07753966 33.50501322 -34.875 34.4375 C-38.89750703 35.03659679 -40.37672663 34.78412495 -43.75 32.4375 C-45.99565053 29.26716984 -46.57179894 27.29624837 -46.28125 23.41015625 C-44.85942456 16.50610003 -38.32004623 11.40257 -32.875 7.4375 C-24.14527637 2.58159123 -9.79927775 -5.32569443 0 0 Z " fill="#036074" transform="translate(280.875,222.5625)"/>
<path d="M0 0 C4.00538252 0.64372219 5.65945826 1.72195826 8.5 4.5625 C9.97905238 7.52060476 9.62190903 10.5172155 9.59765625 13.7578125 C9.5962413 14.46525604 9.59482635 15.17269958 9.59336853 15.90158081 C9.587766 18.16359669 9.57521318 20.42551398 9.5625 22.6875 C9.55748532 24.22005065 9.55292236 25.75260286 9.54882812 27.28515625 C9.53779577 31.04430888 9.52052952 34.80338772 9.5 38.5625 C10.23718262 38.35028809 10.97436523 38.13807617 11.73388672 37.91943359 C18.82793704 35.99392176 25.2878252 35.09329947 32.625 35.1875 C33.53636719 35.17589844 34.44773437 35.16429687 35.38671875 35.15234375 C44.76694639 35.19237317 53.13748199 36.96481538 60.05078125 43.59765625 C61.64674462 45.76145565 62.12606912 47.02204226 62.3125 49.6875 C61.3663766 54.19978084 60.04204091 55.71158903 56.5 58.5625 C56.17 58.8925 55.84 59.2225 55.5 59.5625 C51.03143984 59.27107216 47.56647894 58.21989965 43.4375 56.5 C32.27081442 52.31440239 21.69802342 54.79514814 10.5 57.5625 C10.4254831 62.56124665 10.37122563 67.55966533 10.33520508 72.55883789 C10.32017874 74.25713742 10.29975177 75.95539855 10.27368164 77.65356445 C10.23702551 80.10377518 10.22021211 82.55347 10.20703125 85.00390625 C10.19154739 85.75523331 10.17606354 86.50656036 10.16011047 87.28065491 C10.15818674 93.39516982 11.2808144 98.2799091 15.6875 102.8125 C22.15272904 106.83530918 27.85801806 107.99819728 35.3125 107.96875 C36.53223511 107.98500427 36.53223511 107.98500427 37.77661133 108.00158691 C40.35115642 108.0355633 42.92526122 108.05138115 45.5 108.0625 C48.89625004 108.07716649 52.29153451 108.11099513 55.6875 108.15625 C56.45231689 108.15322876 57.21713379 108.15020752 58.00512695 108.14709473 C66.71546813 108.26702318 74.27843213 111.39224403 80.5 117.5625 C87.14993339 126.69353652 88.51140482 134.31944174 87.5 145.5625 C84.70660183 156.37060133 77.77745867 166.13986123 68.578125 172.49609375 C64.95816906 174.35370272 61.54576947 175.0094612 57.5 174.5625 C53.68496277 172.65498138 52.77490217 171.27724563 51.25 167.3125 C51.62030189 161.75797169 54.5400182 159.25042198 58.5 155.5625 C59.74229508 154.53230408 60.99187429 153.51080185 62.25 152.5 C66.21875157 149.1912206 67.96053118 145.68414542 68.84765625 140.55078125 C69.13104583 136.73592152 68.60775922 134.16337236 66.3125 131.1875 C61.2316332 126.44535766 56.6316318 126.28898777 49.90234375 126.32421875 C48.19595571 126.30878564 46.48957537 126.29248105 44.78320312 126.27539062 C42.11969863 126.25903513 39.45676281 126.24994842 36.79321289 126.25708008 C21.9762264 126.27227132 9.53463659 124.52930071 -1.5 113.5625 C-3.47294485 111.0237842 -5.0902072 108.45002742 -6.5 105.5625 C-6.84374161 104.88634644 -7.18748322 104.21019287 -7.54164124 103.5135498 C-8.86812053 99.4289558 -8.80310617 95.6230704 -8.80639648 91.35351562 C-8.81472 90.43422775 -8.82304352 89.51493988 -8.83161926 88.5677948 C-8.85567823 85.53473659 -8.86448507 82.50189345 -8.87109375 79.46875 C-8.88006102 77.35795019 -8.88918289 75.24715104 -8.89845276 73.13635254 C-8.91493261 68.71474666 -8.92264144 64.29321643 -8.92553711 59.87158203 C-8.93092926 54.20524498 -8.96864836 48.53961798 -9.01428127 42.87348175 C-9.0440127 38.51545609 -9.05125977 34.15760253 -9.05226326 29.79948425 C-9.05647095 27.71026852 -9.06892714 25.62105253 -9.08978081 23.53193665 C-9.11662219 20.61125217 -9.11189197 17.692229 -9.09936523 14.77148438 C-9.11419952 13.90899582 -9.12903381 13.04650726 -9.14431763 12.15788269 C-9.09136211 7.82435205 -8.89160042 6.07598543 -6.18128967 2.52209473 C-3.5 0.5625 -3.5 0.5625 0 0 Z " fill="#036074" transform="translate(311.5,177.4375)"/>
<path d="M0 0 C3.56613969 1.65526007 6.81587982 3.76044874 10.125 5.875 C51.32374568 31.18755371 98.93100106 42.10696224 147 34 C147.78310547 33.87109375 148.56621094 33.7421875 149.37304688 33.609375 C159.74391277 31.84966798 169.71451886 29.41752011 179.64624023 25.93066406 C184.23591349 24.35983437 188.07650031 23.52905655 193 24 C196 26.0625 196 26.0625 198 29 C198.125 32.5625 198.125 32.5625 197 36 C193.11969205 39.79962102 188.97641883 41.38286039 183.9375 43.0625 C182.80260132 43.449823 182.80260132 43.449823 181.64477539 43.8449707 C160.93547425 50.79494625 140.30871469 53.18726531 118.58691406 53.18530273 C115.90152872 53.18747851 113.21656249 53.2056606 110.53125 53.22460938 C70.93464426 53.35487111 33.73736762 41.41030651 0.125 20.5625 C-0.65979736 20.0787793 -1.44459473 19.59505859 -2.25317383 19.09667969 C-6.21951094 16.53580067 -9.05675942 14.46721973 -11 10 C-11.52040677 6.35715261 -11.47073755 4.71552108 -9.4375 1.625 C-6.21392471 -0.5240502 -3.71474844 -0.74234475 0 0 Z " fill="#036175" transform="translate(96,363)"/>
<path d="M0 0 C3.37522805 1.95013176 4.70679474 3.20662106 6.0625 6.875 C5.94596445 12.70177762 0.81374392 17.64131464 -2.56762695 22.21508789 C-21.20446356 47.52667602 -30.92121393 73.09532109 -36.49780273 103.73510742 C-36.66610596 104.62818604 -36.83440918 105.52126465 -37.0078125 106.44140625 C-37.15750488 107.25295166 -37.30719727 108.06449707 -37.46142578 108.90063477 C-38.25239368 111.98383195 -39.30337403 113.32371899 -42 115 C-45.4375 116.0625 -45.4375 116.0625 -49 116 C-51.9375 114.3125 -51.9375 114.3125 -54 111 C-57.13972721 94.75053462 -49.44318472 72.64447317 -42.59765625 58 C-41 56 -41 56 -38.84375 55.65234375 C-37.68359375 55.79349609 -37.68359375 55.79349609 -36.5 55.9375 C-32.87649003 56.24189725 -32.87649003 56.24189725 -29.875 54.3125 C-28.75145256 51.34312462 -28.86206887 49.95862094 -30 47 C-31.9568288 45.17662247 -31.9568288 45.17662247 -34 44 C-32.849009 31.3870569 -23.58278858 20.65205943 -16 11 C-15.33355469 10.11699219 -14.66710938 9.23398438 -13.98046875 8.32421875 C-7.03472222 -0.84416667 -7.03472222 -0.84416667 0 0 Z " fill="#046275" transform="translate(68,81)"/>
<path d="M0 0 C4.29988993 2.86659329 5.52087189 6.0507619 7.375 10.8125 C11.13767029 20.24811934 16.32263025 25.6632154 25.61328125 29.9296875 C33.16723395 32.31698051 41.53940252 32.38526036 48.9375 29.375 C55.35059121 25.9506513 60.65259943 21.85227 65 16 C68.09173752 14.45413124 70.59429552 14.70640479 74 15 C77.38942038 17.6758582 78.74827883 19.79173837 79.625 24 C79.49953109 29.02921212 76.2369142 32.04708155 72.89453125 35.5 C62.22260095 44.71732172 49.7232158 49.60178275 35.625 49.5 C34.7081543 49.49500488 33.79130859 49.49000977 32.84667969 49.48486328 C25.38070222 49.2933941 19.4783025 47.83636976 13 44 C12.195625 43.54238281 11.39125 43.08476562 10.5625 42.61328125 C8.25598366 41.19118925 6.13354787 39.669211 4 38 C3.32324219 37.47277344 2.64648438 36.94554687 1.94921875 36.40234375 C-5.24707453 30.04445357 -10.4687436 20.47907331 -12.67578125 11.140625 C-12.90276883 7.27535082 -12.08687265 5.12899272 -9.9375 1.9375 C-6.21772362 -0.51596953 -4.3766411 -0.78154305 0 0 Z " fill="#036174" transform="translate(183,121)"/>
<path d="M0 0 C1.1875 1.8515625 1.1875 1.8515625 1.203125 4.88671875 C0.1875 7.8515625 0.1875 7.8515625 -2.015625 9.28515625 C-3.02109375 9.61644531 -4.0265625 9.94773438 -5.0625 10.2890625 C-6.23683594 10.69382813 -7.41117187 11.09859375 -8.62109375 11.515625 C-10.0170759 11.96453972 -11.41431119 12.40956854 -12.8125 12.8515625 C-33.64665874 19.48310261 -51.44824126 26.7927594 -67.68359375 41.93359375 C-69.8125 43.8515625 -69.8125 43.8515625 -72.8125 45.8515625 C-75.375 45.6640625 -75.375 45.6640625 -77.8125 44.8515625 C-80.14378212 41.35463932 -80.29230173 39.96638386 -79.8125 35.8515625 C-69.75558206 21.299507 -18.489863 -11.71555975 0 0 Z " fill="#E8600A" transform="translate(408.8125,126.1484375)"/>
<path d="M0 0 C4.54212547 0.58608071 5.986418 1.88178463 9.44140625 4.6640625 C21.27029051 13.58793987 35.12615633 17.3605363 49.08691406 21.62890625 C69.32787825 27.95287825 69.32787825 27.95287825 75.875 34.5 C76.21990322 38.55261287 76.17663882 40.04754176 73.875 43.5 C68.58561585 44.10884997 65.53276327 43.13724409 61 40.5 C54.38023055 36.88514071 47.50252754 34.6035532 40.3125 32.375 C39.21574951 32.03259277 38.11899902 31.69018555 36.98901367 31.33740234 C34.87582475 30.67893223 32.7623138 30.02149446 30.6484375 29.36523438 C18.4024151 25.54482034 3.25415673 19.81119287 -5.125 9.5 C-5.5 5.875 -5.5 5.875 -5.125 2.5 C-3.125 0.5 -3.125 0.5 0 0 Z " fill="#E86009" transform="translate(340.125,243.5)"/>
<path d="M0 0 C3.09538404 1.04707514 5.96057553 2.46766861 8.875 3.9375 C9.70290039 4.3406543 10.53080078 4.74380859 11.38378906 5.15917969 C16.19969446 7.52582172 20.93117734 10.02632533 25.6394043 12.59912109 C37.18198881 18.89313421 48.95279493 22.79568944 61.81079102 25.56958008 C68.00752456 26.98132481 68.00752456 26.98132481 70 30 C69.875 33.0625 69.875 33.0625 69 36 C64.16787303 39.22141798 59.56405878 37.91537741 54 37 C36.93437696 33.23165949 21.62009904 25.50925896 6.32421875 17.3046875 C2.17072678 15.07712645 -2.03280273 12.9702595 -6.28515625 10.9375 C-8 10 -8 10 -10 8 C-9.75 4.4375 -9.75 4.4375 -9 1 C-5.86534515 -0.56732742 -3.4867989 -0.27381423 0 0 Z " fill="#E8600A" transform="translate(66,144)"/>
<path d="M0 0 C2.23269802 2.53039109 2.81395868 3.57562813 3.1875 6.9375 C2.79882474 10.90198767 1.66341168 12.33658832 -1.125 15.125 C-4.16115484 16.97899243 -6.47420307 17.33315399 -10 17.4375 C-14.00362636 17.80787953 -16.7992909 18.42657883 -19.8203125 21.328125 C-22.10713422 24.47763994 -23.51392304 28.0009925 -24.94921875 31.6015625 C-26.11308341 34.09942487 -26.91222966 35.50512506 -29.125 37.125 C-32.19733373 37.80396878 -35.0364487 37.68807524 -38.125 37.125 C-41.15675984 34.9805845 -41.88432369 33.33429982 -42.6015625 29.73046875 C-43.22758476 21.62695843 -40.29664279 16.1968577 -35.125 10.125 C-26.39052047 1.80317305 -12.01106062 -7.20663637 0 0 Z " fill="#056275" transform="translate(135.125,278.875)"/>
<path d="M0 0 C0 4.30967916 -2.16725288 5.89746745 -5 9 C-7.36334965 10.18167482 -8.91398206 10.16993608 -11.55078125 10.24609375 C-12.47068848 10.27751465 -13.3905957 10.30893555 -14.33837891 10.34130859 C-15.81056885 10.38892334 -15.81056885 10.38892334 -17.3125 10.4375 C-25.66722816 10.76748684 -33.7879623 11.33509373 -42 13 C-43.41152344 13.25523437 -43.41152344 13.25523437 -44.8515625 13.515625 C-52.13501922 15.04691779 -58.46381848 17.90424058 -65.03808594 21.30712891 C-69.19270889 23.40200337 -72.22458698 24.57190575 -77 24 C-79.4664769 22.43789797 -79.89160004 21.45768871 -80.5625 18.625 C-79.73920098 14.7829379 -77.06583938 13.17992431 -74 11 C-64.79609316 5.87606575 -55.23163248 2.45905177 -45 0 C-44.15953125 -0.22558594 -43.3190625 -0.45117188 -42.453125 -0.68359375 C-29.09975807 -3.76677561 -13.30204364 -3.14309892 0 0 Z " fill="#E8620C" transform="translate(93,219)"/>
<path d="M0 0 C1.875 1.1875 1.875 1.1875 3 3 C3.4140625 5.27734375 3.4140625 5.27734375 3 8 C1.20718106 10.0258854 -0.45233703 11.65098907 -2.5 13.375 C-3.05099365 13.85976807 -3.6019873 14.34453613 -4.16967773 14.84399414 C-6.48561267 16.87488052 -8.83651616 18.86216068 -11.19140625 20.84765625 C-14.62741111 23.76718439 -17.72631676 26.76434601 -20.7109375 30.15332031 C-38.5960427 50.45498236 -38.5960427 50.45498236 -47.9375 51.25 C-51 51 -51 51 -52.875 49.8125 C-54.42799377 47.31045448 -54.40409092 45.91031442 -54 43 C-52.015625 40.9296875 -52.015625 40.9296875 -49.25 38.875 C-48.23550781 38.08738281 -47.22101563 37.29976563 -46.17578125 36.48828125 C-45.64549316 36.07787598 -45.11520508 35.6674707 -44.56884766 35.24462891 C-35.51094236 28.05863432 -27.45438225 19.5486279 -19.40600586 11.28149414 C-7.0435479 -1.28064507 -7.0435479 -1.28064507 0 0 Z " fill="#E86009" transform="translate(112,251)"/>
<path d="M0 0 C1.59375 2.13671875 1.59375 2.13671875 1.53125 4.69921875 C0.52552105 7.31411402 -0.25814883 8.38292063 -2.40625 10.13671875 C-4.31298828 10.59741211 -4.31298828 10.59741211 -6.4765625 10.7265625 C-7.28206543 10.78626221 -8.08756836 10.84596191 -8.91748047 10.9074707 C-10.21129639 10.99001099 -10.21129639 10.99001099 -11.53125 11.07421875 C-25.19178731 12.20293391 -37.750359 15.14897132 -50.453125 20.28125 C-53.65662817 21.20924893 -55.29149198 21.28569417 -58.40625 20.13671875 C-60.40625 17.13671875 -60.40625 17.13671875 -61.03125 14.76171875 C-60.40625 12.13671875 -60.40625 12.13671875 -57.34375 9.63671875 C-51.12821692 6.12455478 -44.21020139 4.17940614 -37.40625 2.13671875 C-36.65085937 1.90984375 -35.89546875 1.68296875 -35.1171875 1.44921875 C-7.7526323 -6.00325586 -7.7526323 -6.00325586 0 0 Z " fill="#E8610B" transform="translate(416.40625,154.86328125)"/>
<path d="M0 0 C3.19026198 2.10267267 4.88874348 3.44792091 6.75 6.8125 C7.57026729 11.8178045 7.34091397 15.63067207 5.0625 20.1875 C0.46296348 25.40859551 -3.67561812 28.3491542 -10.625 29.25 C-15.28109045 28.68805805 -17.92834921 27.06233131 -21.25 23.8125 C-23.70991666 19.85524277 -24.05454789 15.36322401 -23.25 10.8125 C-21.45297919 6.39214969 -18.95702774 2.93072449 -14.9375 0.3125 C-9.49436256 -1.9016576 -5.64801545 -2.06369795 0 0 Z " fill="#086477" transform="translate(215.25,338.1875)"/>
<path d="M0 0 C0.88880859 -0.020625 1.77761719 -0.04125 2.69335938 -0.0625 C9.12873203 -0.10117993 9.12873203 -0.10117993 12.3984375 1.578125 C13.8125 3.25 13.8125 3.25 14.25 6.25 C13.76344898 9.58634984 13.44288522 10.28378075 10.8125 12.25 C8.52270508 12.60302734 8.52270508 12.60302734 5.83203125 12.5859375 C4.34401001 12.60043945 4.34401001 12.60043945 2.82592773 12.61523438 C1.24146851 12.62006836 1.24146851 12.62006836 -0.375 12.625 C-9.56914395 12.80647693 -17.24707813 13.88137337 -25.84765625 17.09375 C-29.34588839 18.30483387 -32.49439637 18.99686193 -36.1875 19.25 C-38.1875 17.25 -38.1875 17.25 -38.8125 13.9375 C-38.1875 10.25 -38.1875 10.25 -36.85546875 8.8203125 C-26.10519602 1.53275919 -12.63324513 0.0742586 0 0 Z " fill="#E8610A" transform="translate(118.1875,230.75)"/>
<path d="M0 0 C1 1 1 1 1.25 3.875 C1 7 1 7 -0.28515625 8.703125 C-2 10 -2 10 -5.6875 9.875 C-9.34665745 9.34124932 -12.96290114 8.61593161 -16.59033203 7.90087891 C-17.26177246 7.76858887 -17.93321289 7.63629883 -18.625 7.5 C-19.3041748 7.36384277 -19.98334961 7.22768555 -20.68310547 7.08740234 C-26.78612573 5.91764489 -32.78374207 5.56449542 -38.98828125 5.40625 C-42.38619861 4.94790576 -42.81375336 4.44170481 -45 2 C-47.71825785 0.78133025 -47.71825785 0.78133025 -50.6875 -0.1875 C-51.68136719 -0.53167969 -52.67523438 -0.87585938 -53.69921875 -1.23046875 C-54.83810547 -1.61138672 -54.83810547 -1.61138672 -56 -2 C-55.67 -2.66 -55.34 -3.32 -55 -4 C-39.25330822 -9.11215244 -14.26858441 -8.50627147 0 0 Z " fill="#E8610A" transform="translate(428,209)"/>
<path d="M0 0 C0.14700056 3.16616599 0.23462106 6.33143982 0.3125 9.5 C0.35439453 10.386875 0.39628906 11.27375 0.43945312 12.1875 C0.55769432 18.61982124 -0.63866524 23.13279565 -5 28 C-9.66501217 30.76445166 -13.61212347 31.78369113 -19 31 C-21.95482728 29.32670455 -24.51282472 27.41418676 -25.65576172 24.09643555 C-26.01154961 21.92966207 -26.12940552 19.90234186 -26.1328125 17.70703125 C-26.13410156 16.91232422 -26.13539063 16.11761719 -26.13671875 15.29882812 C-26.13285156 14.47833984 -26.12898437 13.65785156 -26.125 12.8125 C-26.12886719 11.98041016 -26.13273438 11.14832031 -26.13671875 10.29101562 C-26.12667092 4.12667092 -26.12667092 4.12667092 -25 3 C-22.66702567 2.95907063 -20.33294775 2.95758277 -18 3 C-17.95101562 4.20398438 -17.90203125 5.40796875 -17.8515625 6.6484375 C-17.77653657 8.22398198 -17.70098867 9.79950166 -17.625 11.375 C-17.5940625 12.1690625 -17.563125 12.963125 -17.53125 13.78125 C-17.48183579 18.36667375 -17.48183579 18.36667375 -15 22 C-12.42459787 21.83492354 -12.42459787 21.83492354 -10 21 C-8.88176185 18.76352369 -8.80603939 17.35108471 -8.68359375 14.8671875 C-8.64169922 14.06152344 -8.59980469 13.25585938 -8.55664062 12.42578125 C-8.51732422 11.58402344 -8.47800781 10.74226563 -8.4375 9.875 C-8.39431641 9.02550781 -8.35113281 8.17601562 -8.30664062 7.30078125 C-8.20045764 5.20071777 -8.09971503 3.10038052 -8 1 C-5.29120665 -0.35439668 -2.99066732 -0.06501451 0 0 Z " fill="#086477" transform="translate(260,329)"/>
<path d="M0 0 C1.4540625 0.0309375 1.4540625 0.0309375 2.9375 0.0625 C2.96636537 4.37498609 2.98425255 8.68744762 3 13 C3.00837891 14.23169922 3.01675781 15.46339844 3.02539062 16.73242188 C3.03022461 18.4871582 3.03022461 18.4871582 3.03515625 20.27734375 C3.04301147 21.90337524 3.04301147 21.90337524 3.05102539 23.56225586 C2.9375 26.0625 2.9375 26.0625 1.9375 27.0625 C-0.06208364 27.10330783 -2.06295254 27.10504356 -4.0625 27.0625 C-4.0625 24.4225 -4.0625 21.7825 -4.0625 19.0625 C-7.0325 19.3925 -10.0025 19.7225 -13.0625 20.0625 C-13.145 21.50625 -13.2275 22.95 -13.3125 24.4375 C-13.453125 26.8984375 -13.453125 26.8984375 -14.0625 29.0625 C-16.96228443 31.14278013 -18.35614707 31.0625 -22.0625 31.0625 C-22.09136338 26.58334672 -22.10925187 22.10421709 -22.125 17.625 C-22.13337891 16.34560547 -22.14175781 15.06621094 -22.15039062 13.74804688 C-22.15361328 12.53310547 -22.15683594 11.31816406 -22.16015625 10.06640625 C-22.16539307 8.94049072 -22.17062988 7.8145752 -22.17602539 6.65454102 C-22.0625 4.0625 -22.0625 4.0625 -21.0625 3.0625 C-18.72952567 3.02157063 -16.39544775 3.02008277 -14.0625 3.0625 C-14.0625 6.0325 -14.0625 9.0025 -14.0625 12.0625 C-9.04714948 11.73289784 -9.04714948 11.73289784 -5.0625 9.0625 C-4.64112715 7.12258596 -4.64112715 7.12258596 -4.5 5 C-3.95340909 0.08068182 -3.95340909 0.08068182 0 0 Z " fill="#046175" transform="translate(327.0625,317.9375)"/>
<path d="M0 0 C5.13437499 0.13328513 9.76710685 1.57040757 14.6328125 3.11328125 C15.93412109 3.50483398 15.93412109 3.50483398 17.26171875 3.90429688 C21.8858006 5.32952758 26.34592985 6.77842813 30.5078125 9.30078125 C31.71855337 12.64812366 31.83404363 14.39199453 30.6328125 17.73828125 C28.5078125 19.30078125 28.5078125 19.30078125 24.8203125 19.36328125 C16.58822285 18.05424404 0.35938958 15.15235833 -5.4921875 9.30078125 C-5.6796875 5.86328125 -5.6796875 5.86328125 -5.4921875 2.30078125 C-3.4921875 0.30078125 -3.4921875 0.30078125 0 0 Z " fill="#E8610B" transform="translate(306.4921875,41.69921875)"/>
<path d="M0 0 C2.3046875 1.02734375 2.3046875 1.02734375 4 2 C2.125 6.875 2.125 6.875 1 8 C-1.25543624 8.24261665 -3.50945523 8.38332133 -5.7734375 8.5234375 C-8.43325404 9.09273157 -9.36974236 9.85220026 -11 12 C-11.41679297 14.54230847 -11.41679297 14.54230847 -11 17 C-10.34 17.66 -9.68 18.32 -9 19 C-6.32186601 19.02207488 -6.32186601 19.02207488 -3.375 18.625 C-2.37210937 18.51414062 -1.36921875 18.40328125 -0.3359375 18.2890625 C0.43492187 18.19367188 1.20578125 18.09828125 2 18 C4 21 4 21 4.0625 23 C2.64738725 25.66374165 0.80080864 26.43398314 -1.97265625 27.44921875 C-5.44914029 28.39369707 -8.46178693 28.8724361 -12 28 C-15.86820458 25.62988621 -18.55261292 23.34216124 -20 19 C-20.50242956 12.87035937 -20.11075344 9.86799749 -16 5 C-11.14693069 -0.31526638 -6.89161495 -1.08036868 0 0 Z " fill="#096578" transform="translate(290,325)"/>
<path d="M0 0 C1.16692383 0.00773438 1.16692383 0.00773438 2.35742188 0.015625 C15.52959551 0.19140046 15.52959551 0.19140046 19.3125 2.4375 C20.7976593 5.12935123 20.63301241 7.23718336 20.3125 10.25 C17.05791131 13.50458869 13.11775164 12.54603956 8.68554688 12.57226562 C7.42806641 12.56904297 6.17058594 12.56582031 4.875 12.5625 C3.62138672 12.57861328 2.36777344 12.59472656 1.07617188 12.61132812 C-0.12330078 12.61197266 -1.32277344 12.61261719 -2.55859375 12.61328125 C-3.66130615 12.61626221 -4.76401855 12.61924316 -5.90014648 12.62231445 C-8.6875 12.25 -8.6875 12.25 -10.54711914 10.91479492 C-12.32800145 8.31495838 -12.06983024 6.30864188 -11.6875 3.25 C-8.57646502 -0.8123727 -4.72552928 -0.1222449 0 0 Z " fill="#E86008" transform="translate(56.6875,168.75)"/>
<path d="M0 0 C0 1.98 0 3.96 0 6 C-3.465 7.485 -3.465 7.485 -7 9 C-7.04898438 10.27617187 -7.09796875 11.55234375 -7.1484375 12.8671875 C-7.22346191 14.53648072 -7.29900988 16.20575046 -7.375 17.875 C-7.42140625 19.13763672 -7.42140625 19.13763672 -7.46875 20.42578125 C-7.50742188 21.23144531 -7.54609375 22.03710938 -7.5859375 22.8671875 C-7.63306885 23.98262939 -7.63306885 23.98262939 -7.68115234 25.12060547 C-8 27 -8 27 -10 29 C-11.98 29 -13.96 29 -16 29 C-16.33 23.06 -16.66 17.12 -17 11 C-19.64 11 -22.28 11 -25 11 C-25 8.69 -25 6.38 -25 4 C-16.84214461 1.46200054 -8.57648066 -0.38117692 0 0 Z " fill="#086477" transform="translate(183,342)"/>
<path d="M0 0 C3.64751591 0.28057815 5.34775143 1.07331357 8.25 3.25 C10.70665197 6.93497796 10.95086491 9.96971786 10.25 14.25 C8.45636089 17.0600346 7.23119065 18.75940468 4.25 20.25 C-2.99087591 20.83394161 -2.99087591 20.83394161 -6.1875 18.375 C-8.67110614 14.99729565 -9.13639538 12.52665264 -9.11328125 8.2890625 C-8.50965397 4.900961 -6.3344052 3.33013101 -3.75 1.25 C-2.75 0.25 -2.75 0.25 0 0 Z " fill="#076376" transform="translate(58.75,254.75)"/>
<path d="M0 0 C3.49406769 1.66762322 4.82670681 2.74006022 7 6 C7.23293134 10.21605721 6.68055028 13.91111955 4.4375 17.5 C1.04573073 19.58724263 -2.01427142 20.35586862 -6 20 C-8.85993478 18.23535939 -10.49782849 17.00434303 -12 14 C-12.5811138 6.91041162 -12.5811138 6.91041162 -10.125 3.0625 C-6.7586549 -0.20483495 -4.63724366 -0.36370538 0 0 Z " fill="#066276" transform="translate(396,234)"/>
<path d="M0 0 C2.75329021 1.79562405 4.52627461 3.05254922 6 6 C6.69019608 13.01699346 6.69019608 13.01699346 3.9375 16.9375 C0.3663781 19.44488346 -1.63040496 20.15331912 -6 20 C-9.64610687 17.97438507 -11.39531717 16.7818845 -12.734375 12.8359375 C-13.42853184 8.68487958 -13.40551879 6.67120351 -11.1875 3 C-7.49252746 -0.37826061 -4.97168837 -0.42132952 0 0 Z " fill="#066276" transform="translate(368,98)"/>
<path d="M0 0 C2.96326994 2.10548127 3.83222327 3.47429959 4.9375 6.9375 C5.01327396 10.65042412 4.3135507 12.12800603 2 15 C-0.65499724 17.08606926 -2.06750504 16.99879455 -5.5 16.9375 C-9 16 -9 16 -11.4375 13.8125 C-13.30215998 10.45611204 -13.6303761 8.7822566 -13 5 C-9.09189138 -0.86216294 -6.85666425 -1.53683854 0 0 Z " fill="#E8610B" transform="translate(322,372)"/>
<path d="M0 0 C2.5 2.125 2.5 2.125 4 5 C3.93768424 8.61431429 3.78958699 10.97010393 1.5625 13.875 C-1.69480539 16.22025988 -4.00625127 16.46985279 -8 16 C-11.32878632 13.53959272 -12.79301948 12.10389613 -13.5625 8 C-12.87642343 4.34092496 -11.57265686 2.64832324 -9 0 C-5.77839187 -1.61080407 -3.42436421 -0.82657067 0 0 Z " fill="#E8620C" transform="translate(56,195)"/>
<path d="M0 0 C1.66482422 0.00966797 1.66482422 0.00966797 3.36328125 0.01953125 C6.54555714 0.1803278 9.55943763 0.59596022 12.6875 1.1875 C11.6975 1.6825 11.6975 1.6825 10.6875 2.1875 C10.72875 3.30125 10.77 4.415 10.8125 5.5625 C10.6875 9.1875 10.6875 9.1875 8.6875 11.1875 C5.97827199 11.38602102 3.39446821 11.46589477 0.6875 11.4375 C-0.41851562 11.44910156 -0.41851562 11.44910156 -1.546875 11.4609375 C-7.0591804 11.4408196 -7.0591804 11.4408196 -9.3125 9.1875 C-9.625 5.6875 -9.625 5.6875 -9.3125 2.1875 C-5.76163328 -0.17974448 -4.20075741 -0.05329681 0 0 Z " fill="#E9640F" transform="translate(181.3125,221.8125)"/>
<path d="M0 0 C4.1220084 0.75710358 5.60743908 2.21468965 8.0625 5.5625 C8.14253995 8.84413803 7.27978345 10.24493189 5.4375 12.9375 C3.0625 14.5625 3.0625 14.5625 -0.5 14.5625 C-3.9375 13.5625 -3.9375 13.5625 -5.875 11.8125 C-7.17120853 9.06758782 -7.46237013 7.56175788 -6.9375 4.5625 C-4.82975302 1.56301391 -3.61546049 0.69232222 0 0 Z " fill="#E9640F" transform="translate(125.9375,29.4375)"/>
<path d="M0 0 C2.375 1.625 2.375 1.625 4 4 C4 7.49447855 3.66530348 9.26077391 1.3125 11.875 C-1.71965394 13.35010192 -3.66979801 13.49598753 -7 13 C-8.9375 11.375 -8.9375 11.375 -10 9 C-9.92857348 5.50010028 -9.66021066 3.70736857 -7.25 1.125 C-4.50272993 -0.24863504 -3.03212094 -0.53062116 0 0 Z " fill="#F3F7F8" transform="translate(210,345)"/>
<path d="M0 0 C8.28038985 -1.12914407 15.29939786 3.53293191 22 8 C22 8.66 22 9.32 22 10 C14.17486663 10.53556046 7.97656931 9.74086104 1 6 C0.34 5.34 -0.32 4.68 -1 4 C-0.625 1.875 -0.625 1.875 0 0 Z " fill="#E96917" transform="translate(331,268)"/>
<path d="M0 0 C0.33 0.33 0.66 0.66 1 1 C0.4 7.6 0.4 7.6 -2 10 C-4.84602594 10.36487512 -6.3864306 10.40199375 -8.8125 8.8125 C-10.42525784 6.35092224 -10.4334014 4.88934264 -10 2 C-7.59027568 -2.25245468 -4.23782457 -0.94173879 0 0 Z " fill="#E96612" transform="translate(173,321)"/>
<path d="M0 0 C3 0.25 3 0.25 5 2.25 C4.625 5.875 4.625 5.875 4 9.25 C0.625 9.875 0.625 9.875 -3 10.25 C-5 8.25 -5 8.25 -5.25 5.25 C-4.90584825 1.120179 -4.129821 0.34415175 0 0 Z " fill="#E96714" transform="translate(335,355.75)"/>
<path d="M0 0 C6.57692308 0.57692308 6.57692308 0.57692308 8 2 C8.2982732 4.83359542 8.35602594 6.43785378 6.8125 8.875 C5 10 5 10 2.4375 9.8125 C0 9 0 9 -2 7 C-2.25 4.5 -2.25 4.5 -2 2 C-1.34 1.34 -0.68 0.68 0 0 Z " fill="#E96815" transform="translate(257,369)"/>
<path d="M0 0 C2 2 2 2 2.3125 4.4375 C2 7 2 7 0.875 8.875 C-1.92151052 10.55290631 -3.93690532 9.74875648 -7 9 C-8.33157895 3.55263158 -8.33157895 3.55263158 -6.875 1.125 C-4.40522151 -0.3568671 -2.83386167 -0.3633156 0 0 Z " fill="#E96714" transform="translate(286,366)"/>
<path d="M0 0 C2.5 0.25 2.5 0.25 4.5 2.25 C4.75 5.25 4.75 5.25 4.5 8.25 C2.5 10.25 2.5 10.25 0 10.5 C-2.5 10.25 -2.5 10.25 -4.5 8.25 C-4.75 5.25 -4.75 5.25 -4.5 2.25 C-2.5 0.25 -2.5 0.25 0 0 Z " fill="#116A7C" transform="translate(349.5,318.75)"/>
<path d="M0 0 C2.5 0.25 2.5 0.25 4.5 2.25 C4.125 5.875 4.125 5.875 3.5 9.25 C0.625 9.875 0.625 9.875 -2.5 10.25 C-4.5 8.25 -4.5 8.25 -4.75 5.25 C-4.43608753 1.48305032 -3.83691092 0.38369109 0 0 Z " fill="#096478" transform="translate(140.5,356.75)"/>
<path d="M0 0 C2.9375 0.1875 2.9375 0.1875 3.9375 1.1875 C4.1875 4.125 4.1875 4.125 3.9375 7.1875 C0.9375 9.1875 0.9375 9.1875 -1.6875 8.875 C-4.0625 8.1875 -4.0625 8.1875 -5.0625 7.1875 C-5.25 4.75 -5.25 4.75 -5.0625 2.1875 C-3.0625 0.1875 -3.0625 0.1875 0 0 Z " fill="#E8630E" transform="translate(76.0625,309.8125)"/>
<path d="M0 0 C2.5 0.25 2.5 0.25 4.5 2.25 C4.75 4.75 4.75 4.75 4.5 7.25 C2.5 9.25 2.5 9.25 0 9.5 C-2.5 9.25 -2.5 9.25 -4.5 7.25 C-4.75 4.75 -4.75 4.75 -4.5 2.25 C-2.5 0.25 -2.5 0.25 0 0 Z " fill="#E96815" transform="translate(212.5,378.75)"/>
<path d="M0 0 C4.55555556 0.55555556 4.55555556 0.55555556 6 2 C5.71269945 4.33944736 5.38063221 6.6739143 5 9 C3.02 9 1.04 9 -1 9 C-1.625 5.625 -1.625 5.625 -2 2 C-1.34 1.34 -0.68 0.68 0 0 Z " fill="#E96612" transform="translate(358,81)"/>
<path d="M0 0 C2.625 0.375 2.625 0.375 5 1 C5.625 3.3125 5.625 3.3125 6 6 C5.01 7.485 5.01 7.485 4 9 C-0.875 8.125 -0.875 8.125 -2 7 C-2.1875 4.5625 -2.1875 4.5625 -2 2 C-1.34 1.34 -0.68 0.68 0 0 Z " fill="#EA6E1F" transform="translate(340,69)"/>
<path d="M0 0 C2.625 0.375 2.625 0.375 5 1 C5.625 3.375 5.625 3.375 6 6 C4 8 4 8 1.4375 8.1875 C-1 8 -1 8 -2 7 C-2.1875 4.5625 -2.1875 4.5625 -2 2 C-1.34 1.34 -0.68 0.68 0 0 Z " fill="#E96A19" transform="translate(352,122)"/>
<path d="M0 0 C0.99 0 1.98 0 3 0 C2.67 1.65 2.34 3.3 2 5 C0.35 5.33 -1.3 5.66 -3 6 C-2.42655063 3.13275314 -2.1385485 2.1385485 0 0 Z " fill="#EB7428" transform="translate(354,357)"/>
<path d="M0 0 C1.98 0.495 1.98 0.495 4 1 C3.67 2.32 3.34 3.64 3 5 C1.68 4.67 0.36 4.34 -1 4 C-0.67 2.68 -0.34 1.36 0 0 Z " fill="#EE8948" transform="translate(63,124)"/>
<path d="M0 0 C1.32 0.33 2.64 0.66 4 1 C4 2.65 4 4.3 4 6 C3.01 6 2.02 6 1 6 C0.67 4.02 0.34 2.04 0 0 Z " fill="#EA6C1B" transform="translate(386,102)"/>
<path d="M0 0 C0.66 0 1.32 0 2 0 C1.67 1.65 1.34 3.3 1 5 C-0.32 5 -1.64 5 -3 5 C-1.125 1.125 -1.125 1.125 0 0 Z " fill="#EB7529" transform="translate(78,64)"/>
</svg>
